<svg fill="none" height="30" viewBox="0 0 60 30" width="60" xmlns="http://www.w3.org/2000/svg"><path d="m0 0h60v30h-60z" fill="#fafaff"/><g fill="#dee2e6"><path d="m40 15v-5h5v5z"/><path d="m40 15v5h-5v-5z"/><path d="m45 15v5h5v-5z"/><path clip-rule="evenodd" d="m5 0h-5v5h5v5h-5v5h5v5h-5v5h5v5h5v-5h5v5h5v-5h5v5h5v-5h5v5h5v-5h5v5h5v-5h5v5h5v-5h-5v-5h5v-5h-5v-5h5v-5h-5v-5h-5v5h-5v-5h-5v5h-5v-5h-5v5h-5v-5h-5v5h-5v-5h-5v5h-5zm5 10v-5h5v5zm0 5h-5v-5h5zm5 0v-5h5v5zm0 5v-5h-5v5h-5v5h5v-5zm5 0v-5h5v5zm10 0h-5v5h5zm0-5h-5v-5h5zm5 0h-5v5h5v5h5v-5h5v5h5v-5h5v-5h-5v-5h5v-5h-5v5h-5v-5h-5v5h-5v-5h-5v5h5zm-15 5v5h-5v-5zm5-10h-5v-5h5z" fill-rule="evenodd"/></g><path d="m0 0h60v30h-60z" fill="#000" opacity=".5"/></svg>