<svg width="19" height="19" viewBox="0 0 19 19" fill="none" xmlns="http://www.w3.org/2000/svg">
<path d="M17.9512 3.35773e-08H1.0479C0.469086 0.000289951 -0.000144925 0.46981 3.35773e-08 1.04877V17.9521C0.000289951 18.5309 0.46981 19.0001 1.04877 19H17.9512C18.5303 19.0001 18.9999 18.5308 19 17.9517C19 17.9515 19 17.9514 19 17.9512V1.0479C18.9997 0.469086 18.5302 -0.000144925 17.9512 3.35773e-08Z" fill="#4267B2"/>
<path d="M13.1181 19.0002V11.6525H15.5952L15.9662 8.77654H13.1181V6.94485C13.1181 6.11409 13.3487 5.54803 14.54 5.54803H16.0497V2.9827C15.7871 2.94776 14.8859 2.86963 13.8372 2.86963C11.6478 2.86963 10.1494 4.20557 10.1494 6.66V8.77654H7.68158V11.6525H10.1494V19.0002H13.1181Z" fill="white"/>
</svg>
