<svg width="19" height="19" viewBox="0 0 19 19" fill="none" xmlns="http://www.w3.org/2000/svg">
<path d="M4.45313 9.49985C4.45313 8.55849 4.71249 7.67666 5.16307 6.92159V3.71875H1.96023C0.689048 5.36968 0 7.38171 0 9.49985C0 11.618 0.689048 13.63 1.96023 15.2809H5.16307V12.0781C4.71249 11.323 4.45313 10.4412 4.45313 9.49985Z" fill="#FBBD00"/>
<path d="M9.5 14.5469L7.27344 16.7735L9.5 19.0001C11.6182 19.0001 13.6302 18.311 15.2811 17.0398V13.8404H12.0817C11.32 14.2926 10.4345 14.5469 9.5 14.5469Z" fill="#0F9D58"/>
<path d="M5.16305 12.0784L1.96021 15.2813C2.21188 15.6081 2.48593 15.9212 2.78248 16.2177C4.57679 18.012 6.96245 19.0002 9.49999 19.0002V14.5471C7.65847 14.5471 6.04447 13.5555 5.16305 12.0784Z" fill="#31AA52"/>
<path d="M19 9.50013C19 8.92215 18.9477 8.34309 18.8445 7.7791L18.7609 7.32269H9.5V11.7758H14.007C13.5693 12.6465 12.8964 13.3568 12.0816 13.8405L15.2811 17.04C15.6079 16.7883 15.9209 16.5142 16.2175 16.2177C18.0118 14.4233 19 12.0377 19 9.50013Z" fill="#3C79E6"/>
<path d="M13.0687 5.93131L13.4623 6.3249L16.6111 3.17609L16.2176 2.7825C14.4232 0.988187 12.0376 0 9.5 0L7.27344 2.22657L9.5 4.45313C10.848 4.45313 12.1154 4.97808 13.0687 5.93131Z" fill="#CF2D48"/>
<path d="M9.50003 4.45313V0C6.96248 0 4.57683 0.988187 2.78248 2.78247C2.48593 3.07901 2.21188 3.39203 1.96021 3.71892L5.16305 6.92176C6.04451 5.4447 7.65851 4.45313 9.50003 4.45313Z" fill="#EB4132"/>
</svg>
